<?xml version="1.0" standalone="yes"?>
<svg xmlns="http://www.w3.org/2000/svg" width="291" height="291">
<path style="fill:#010101; stroke:none;" d="M0 0L0 128L1 128C2.26201 66.8568 66.8569 2.26224 128 1C117.734 -3.30765 100.158 0 89 0L0 0z"/>
<path style="fill:#c93701; stroke:none;" d="M128 0.425171C106.058 3.41196 84.6274 10.5644 66 22.6952C-19.8465 78.6017 -21.0488 205.285 61 264.848C75.3281 275.249 91.8603 282.569 109 286.873C125.907 291.12 144.595 292.796 162 290.715C183.075 288.194 203.884 281.292 222 270.189C310.137 216.169 313.237 87.4251 231 26.8843C216.067 15.8907 198.944 8.3595 181 3.87344C164.239 -0.316925 145.214 -1.918 128 0.425171z"/>
<path style="fill:#010101; stroke:none;" d="M163 0L163 1C224.143 2.26224 288.738 66.8568 290 128L291 128L291 0L163 0z"/>
<path style="fill:#fb6901; stroke:none;" d="M134 1.42438C105.689 5.15253 80.0442 13.4055 57 30.8989C42.9039 41.5996 31.3742 55.0004 22.064 70C-12.599 125.846 -3.34818 203.137 44.0039 248.961C76.0426 279.965 120.975 294.334 165 288.715C185.395 286.111 205.759 278.854 223 267.655C299.167 218.18 314.029 104.763 245.999 41.0895C229.57 25.7123 210.329 14.6204 189 7.66974C171.947 2.11246 151.895 -0.932129 134 1.42438z"/>
<path style="fill:#fca262; stroke:none;" d="M99.6667 87.3333L100.333 87.6667L99.6667 87.3333z"/>
<path style="fill:#fffefc; stroke:none;" d="M156 158C152.1 158 144.849 156.612 141.563 159.028C138.257 161.459 137.643 168.485 135.521 172C128.913 182.947 117.537 188.173 105 186.826C68.0478 182.856 65.5143 120.81 94 104.532C105.984 97.6841 122.218 99.0129 131.907 109.04C135.134 112.38 137.244 120.534 141.278 122.397C144.751 124.001 150.243 123 154 123C153.739 91.8639 117.085 81.3036 92 89.5201C74.0588 95.3966 62.8896 112.876 60.3002 131C57.6652 149.442 60.2397 172.715 73.3009 186.91C88.9322 203.898 121.514 206.141 139 190.815C149.532 181.584 152.633 171.01 156 158z"/>
<path style="fill:#fca262; stroke:none;" d="M120 87L121 88L120 87M95 88L96 89L95 88M124.667 88.3333L125.333 88.6667L124.667 88.3333M91 89L92 90L91 89M128 89L129 90L128 89M212 89L212 90L226 90L226 170L227 151L227 110L225.972 90.6034L212 89M89 90L90 91L89 90z"/>
<path style="fill:#fffefc; stroke:none;" d="M211 90L211 149C211 158.13 212.693 169.316 209.336 177.996C205.269 188.512 190.019 191.347 182.533 182.811C177.907 177.536 178.004 169.617 178 163L164 163C164 172.353 163.17 183.193 169.394 190.985C181.268 205.85 211.965 204.495 221.775 188C227.581 178.239 226 165.842 226 155L226 90L211 90z"/>
<path style="fill:#fca262; stroke:none;" d="M133 91L134 92L133 91M135 92L136 93L135 92M83 93L84 94L83 93M81 94L82 95L81 94M80 95L81 96L80 95M139 95L140 96L139 95M76 98L77 99L76 98M75 99L76 100L75 99M74 100L75 101L74 100M107 100L107 101L115 101L107 100M73 101L74 102L73 101M101 101L102 102L101 101M119.667 101.333L120.333 101.667L119.667 101.333M98 102L99 103L98 102M146 102L147 103L146 102M95 103L96 104L95 103M125 103L126 104L125 103M147 103L148 104L147 103M93 104L94 105L93 104M70 105L71 106L70 105M128 105L129 106L128 105M90 106L91 107L90 106M149 106L150 107L149 106M68 108L69 109L68 108M150 108L151 109L150 108M151 110L152 111L151 110M66 111L67 112L66 111M134 111L135 112L134 111M152 112L153 113L152 112M65 113L66 114L65 113M83 113L84 114L83 113M136 114L137 115L136 114M153 115L154 116L153 115M64 116L65 117L64 116M81 116L82 117L81 116M137 116L138 117L137 116M63 118L64 119L63 118M80 118L81 119L80 118M138 119L139 120L138 119M62.3333 120.667L62.6667 121.333L62.3333 120.667M79 120L80 121L79 120M154 120L154 123L155 123L154 120M139 122L140 123L139 122M78 123L79 124L78 123M61.3333 124.667L61.6667 125.333L61.3333 124.667M77.3333 125.667L77.6667 126.333L77.3333 125.667M60 129L61 130L60 129M76.3333 130.667L76.6667 131.333L76.3333 130.667M75 137L75 144L76 144L75 137M59 138L59 151L60 151L59 138M75 147L75 153L76 153L75 147M60.3333 157.667L60.6667 158.333L60.3333 157.667M76 157L77 158L76 157M141 157L141 158L155 158L141 157M140 158L141 159L140 158M155.333 159.667L155.667 160.333L155.333 159.667M139.333 161.667L139.667 162.333L139.333 161.667M61.3333 162.667L61.6667 163.333L61.3333 162.667M77 162L78 163L77 162M164 162L164 163L178 163L164 162z"/>
<path style="fill:#010101; stroke:none;" d="M0 163L0 291L128 291L128 290C80.397 289.017 34.0884 249.956 14.2585 209C7.09835 194.212 6.2813 177.561 0 163z"/>
<path style="fill:#fca262; stroke:none;" d="M178 163L178 173L179 173L178 163z"/>
<path style="fill:#010101; stroke:none;" d="M290 163C288.738 224.143 224.143 288.738 163 290L163 291L291 291L291 202C291 190.842 294.308 173.266 290 163z"/>
<path style="fill:#fca262; stroke:none;" d="M78 164L79 165L78 164M154.333 164.667L154.667 165.333L154.333 164.667M138 165L139 166L138 165M62.3333 166.667L62.6667 167.333L62.3333 166.667M79 167L80 168L79 167M137 168L138 169L137 168M153 168L154 169L153 168M80 169L81 170L80 169M63 170L64 171L63 170M136 170L137 171L136 170M81 171L82 172L81 171M152 171L153 172L152 171M210 171L210 174L211 174L210 171M64 172L65 173L64 172M135 172L136 173L135 172M83 174L84 175L83 174M151 174L152 175L151 174M133 175L134 176L133 175M132 176L133 177L132 176M150 176L151 177L150 176M131 177L132 178L131 177M179.333 177.667L179.667 178.333L179.333 177.667M209.333 177.667L209.667 178.333L209.333 177.667M225.333 177.667L225.667 178.333L225.333 177.667M67 178L68 179L67 178M164.333 178.667L164.667 179.333L164.333 178.667M68 180L69 181L68 180M180 180L181 181L180 180M208 180L209 181L208 180M90 181L91 182L90 181M127 181L128 182L127 181M147 181L148 182L147 181M224.333 181.667L224.667 182.333L224.333 181.667M70 183L71 184L70 183M93 183L94 184L93 183M124 183L125 184L124 183M165 183L166 184L165 183M182 183L183 184L182 183M206 183L207 184L206 183M71 184L72 185L71 184M95 184L96 185L95 184M122 184L123 185L122 184M183 184L184 185L183 184M223 184L224 185L223 184M98.6667 185.333L99.3333 185.667L98.6667 185.333M119 185L120 186L119 185M144 185L145 186L144 185M102 186L102 187L105 187L102 186M114 186L114 187L117 187L114 186M143 186L144 187L143 186M166 186L167 187L166 186M186 186L187 187L186 186M201 186L202 187L201 186M142 187L143 188L142 187M190.667 187.333L191.333 187.667L190.667 187.333M195 187L195 188L199 188L195 187M141 188L142 189L141 188M167 188L168 189L167 188M221 188L222 189L221 188M140 189L141 190L140 189M77 190L78 191L77 190M139 190L140 191L139 190M138 191L139 192L138 191M169 191L170 192L169 191M219 191L220 192L219 191M170 192L171 193L170 192M218 192L219 193L218 192M81 193L82 194L81 193M135 193L136 194L135 193M171 193L172 194L171 193M217 193L218 194L217 193M172 194L173 195L172 194M216 194L217 195L216 194M132 195L133 196L132 195M130 196L131 197L130 196M175 196L176 197L175 196M213 196L214 197L213 196M89 197L90 198L89 197M127 197L128 198L127 197M177 197L178 198L177 197M211 197L212 198L211 197M91.6667 198.333L92.3333 198.667L91.6667 198.333M125 198L126 199L125 198M179 198L180 199L179 198M209 198L210 199L209 198M95 199L96 200L95 199M121 199L122 200L121 199M182 199L183 200L182 199M206 199L207 200L206 199M99 200L99 201L104 201L99 200M114 200L114 201L117 201L114 200M186.667 200.333L187.333 200.667L186.667 200.333M200 200L200 201L203 201L200 200z"/>
</svg>
